<svg width="102" height="43" viewBox="0 0 102 43" fill="none" xmlns="http://www.w3.org/2000/svg">
<path d="M0 22.708H6.85144V43.0001H0V22.708Z" fill="#2E1AAD"/>
<path d="M9.80132 32.1583H18.5108V37.0864H9.80132V32.1583Z" fill="#2E1AAD"/>
<path d="M24.7122 28.0129H18.7607V22.708H37.5151V28.0129H31.5636V43.0001H24.7122V28.0129Z" fill="#2E1AAD"/>
<path d="M52.122 39.4635H44.3996L43.0352 43.0001H36.0676L44.9512 22.708H51.6866L60.5702 43.0001H53.4865L52.122 39.4635ZM50.235 34.5354L48.2608 29.4334L46.2867 34.5354H50.235Z" fill="#2E1AAD"/>
<path d="M71.4473 22.708C73.3246 22.708 74.9601 23.0172 76.3536 23.6356C77.7471 24.2541 78.8213 25.1431 79.5761 26.3026C80.3309 27.4622 80.7083 28.815 80.7083 30.361C80.7083 31.9071 80.3309 33.2599 79.5761 34.4194C78.8213 35.579 77.7471 36.468 76.3536 37.0864C74.9601 37.7048 73.3246 38.0141 71.4473 38.0141H68.5151V43.0001H61.6636V22.708H71.4473ZM71.0118 32.7381C71.9408 32.7381 72.6376 32.5352 73.1021 32.1293C73.5666 31.7042 73.7988 31.1147 73.7988 30.361C73.7988 29.6073 73.5666 29.0275 73.1021 28.6217C72.6376 28.1965 71.9408 27.984 71.0118 27.984H68.5151V32.7381H71.0118Z" fill="#2E1AAD"/>
<path d="M92.7389 22.708C94.6163 22.708 96.2518 23.0172 97.6453 23.6356C99.0388 24.2541 100.113 25.1431 100.868 26.3026C101.623 27.4622 102 28.815 102 30.361C102 31.9071 101.623 33.2599 100.868 34.4194C100.113 35.579 99.0388 36.468 97.6453 37.0864C96.2518 37.7048 94.6163 38.0141 92.7389 38.0141H89.8068V43.0001H82.9553V22.708H92.7389ZM92.3035 32.7381C93.2325 32.7381 93.9292 32.5352 94.3937 32.1293C94.8582 31.7042 95.0905 31.1147 95.0905 30.361C95.0905 29.6073 94.8582 29.0275 94.3937 28.6217C93.9292 28.1965 93.2325 27.984 92.3035 27.984H89.8068V32.7381H92.3035Z" fill="#2E1AAD"/>
<path d="M45.8875 7.73034C45.8875 4.22175 48.2299 1.26078 51.4371 0.316467C50.7421 0.111848 50.0066 0 49.245 0C44.9694 0 41.5033 3.46102 41.5033 7.73034C41.5033 11.9999 44.9694 15.4607 49.2451 15.4607C50.0064 15.4607 50.7421 15.3491 51.4372 15.1445C48.2297 14.2004 45.8875 11.2392 45.8875 7.73034Z" fill="url(#paint0_linear)"/>
<path d="M51.6656 4.72377C53.5555 4.72377 55.1508 5.98188 55.6593 7.70477C55.7694 7.33153 55.8296 6.93634 55.8296 6.52734C55.8296 4.2312 53.9653 2.36987 51.6655 2.36963C49.3658 2.36963 47.5012 4.23096 47.5012 6.5271C47.5012 6.93609 47.5617 7.33129 47.672 7.70452C48.1808 5.98188 49.7758 4.72401 51.6656 4.72377Z" fill="url(#paint1_linear)"/>
<path d="M53.1235 9.07112C53.1235 10.4747 52.186 11.6593 50.9028 12.0369C51.1808 12.1188 51.475 12.1635 51.7801 12.1635C53.49 12.1635 54.877 10.779 54.877 9.07088C54.877 7.36274 53.4907 5.97803 51.7801 5.97803C51.4757 5.97803 51.1808 6.02247 50.9028 6.10463C52.186 6.48243 53.1235 7.66712 53.1235 9.07112Z" fill="url(#paint2_linear)"/>
<defs>
<linearGradient id="paint0_linear" x1="38.5579" y1="6.3316" x2="51.3589" y2="8.01298" gradientUnits="userSpaceOnUse">
<stop offset="0.012" stop-color="#E0B386"/>
<stop offset="0.519" stop-color="#DA498C"/>
<stop offset="1" stop-color="#961484"/>
</linearGradient>
<linearGradient id="paint1_linear" x1="54.6232" y1="6.94014" x2="43.5289" y2="2.27021" gradientUnits="userSpaceOnUse">
<stop stop-color="#29D3DA"/>
<stop offset="0.519" stop-color="#0077FF"/>
<stop offset="0.999" stop-color="#064093"/>
<stop offset="1" stop-color="#084698"/>
</linearGradient>
<linearGradient id="paint2_linear" x1="54.2118" y1="11.3606" x2="45.5521" y2="2.06012" gradientUnits="userSpaceOnUse">
<stop offset="0.012" stop-color="#E0B386"/>
<stop offset="0.519" stop-color="#DA498C"/>
<stop offset="1" stop-color="#961484"/>
</linearGradient>
</defs>
</svg>
