<svg width="14" height="10" viewBox="0 0 14 10" fill="none" xmlns="http://www.w3.org/2000/svg">
<path d="M5.66641 9.72989C5.53514 9.73016 5.40512 9.7045 5.28379 9.6544C5.16246 9.60429 5.05223 9.53071 4.95941 9.43789L0.717408 5.19489C0.621835 5.10271 0.545576 4.99242 0.493083 4.87046C0.440589 4.74849 0.412912 4.61729 0.411665 4.48451C0.410418 4.35174 0.435628 4.22004 0.485821 4.09711C0.536015 3.97418 0.610189 3.86248 0.704015 3.76852C0.79784 3.67456 0.909438 3.60023 1.0323 3.54986C1.15516 3.49949 1.28682 3.4741 1.4196 3.47516C1.55237 3.47622 1.68361 3.50371 1.80565 3.55603C1.92769 3.60835 2.03809 3.68445 2.13041 3.77989L5.66541 7.31489L12.0304 0.951894C12.2179 0.764254 12.4723 0.658785 12.7376 0.658691C13.0028 0.658598 13.2573 0.763886 13.4449 0.951394C13.6325 1.1389 13.738 1.39327 13.7381 1.65854C13.7382 1.92381 13.6329 2.17825 13.4454 2.36589L6.37341 9.43789C6.28059 9.53071 6.17035 9.60429 6.04903 9.6544C5.9277 9.7045 5.79767 9.73016 5.66641 9.72989Z" fill="#05A660"/>
</svg>
